<?xml version="1.0" encoding="utf-8"?>
<!-- Generator: Adobe Illustrator 19.2.1, SVG Export Plug-In . SVG Version: 6.00 Build 0)  -->
<svg version="1.1" id="layer" xmlns="http://www.w3.org/2000/svg" xmlns:xlink="http://www.w3.org/1999/xlink" x="0px" y="0px"
	 viewBox="0 0 652 652" style="enable-background:new 0 0 652 652;" xml:space="preserve">
<path d="M405.3,353.5v32.9H286.6c-5.1,0-9.3-4.2-9.3-9.3c0,0,0,0,0,0V255.7h49.9l0,88.5c0,5.1,4.2,9.3,9.3,9.3L405.3,353.5
	 M621.8,386.4l-60.2-130.7l-58.1,0l-37.7,81.8l-37.6-81.8h-50.1l60.3,130.7h54.9l39.3-85.4l24.2,52.6h-24.2v32.8L621.8,386.4
	L621.8,386.4z M21.8,386.5l0-32.7h78.8c5.1,0,9.3-4.4,9.3-9.5c0-5.2-4.2-9.3-9.3-9.3l0,0l-39.2,0c-21.9,0-39.6-17.7-39.6-39.6
	c0-21.9,17.7-39.6,39.6-39.6l173.8,0c5.1,0,9.3,4.2,9.3,9.3v121.4h-49.9l0-88.5c0-5.1-4.2-9.3-9.3-9.3l-104.4,0
	c-5.2,0-9.3,4.2-9.3,9.3c0,0,0,0,0,0c0,5.1,4.2,9.3,9.3,9.3l39.4,0c21.9,0,39.6,17.8,39.6,39.6c0,21.9-17.5,39.7-39.4,39.7
	L21.8,386.5"/>
</svg>
